<?xml version="1.0" encoding="UTF-8" standalone="no"?>
<!-- Created with Inkscape (http://www.inkscape.org/) -->

<svg
   width="1000"
   height="1000"
   viewBox="0 0 264.58332 264.58331"
   version="1.1"
   id="svg5"
   sodipodi:docname="logo-convertido em caminho.svg"
   inkscape:version="1.1.2 (b8e25be833, 2022-02-05)"
   xmlns:inkscape="http://www.inkscape.org/namespaces/inkscape"
   xmlns:sodipodi="http://sodipodi.sourceforge.net/DTD/sodipodi-0.dtd"
   xmlns="http://www.w3.org/2000/svg"
   xmlns:svg="http://www.w3.org/2000/svg">
  <sodipodi:namedview
     id="namedview7"
     pagecolor="#ffffff"
     bordercolor="#666666"
     borderopacity="1.0"
     inkscape:pageshadow="2"
     inkscape:pageopacity="0.0"
     inkscape:pagecheckerboard="false"
     inkscape:document-units="px"
     showgrid="false"
     units="px"
     showguides="true"
     inkscape:guide-bbox="true"
     inkscape:zoom="0.2475"
     inkscape:cx="501.0101"
     inkscape:cy="1125.2525"
     inkscape:window-width="1366"
     inkscape:window-height="705"
     inkscape:window-x="-8"
     inkscape:window-y="-8"
     inkscape:window-maximized="1"
     inkscape:current-layer="layer1">
    <sodipodi:guide
       position="26.458331,238.12498"
       orientation="0,1"
       id="guide824"
       inkscape:label="Margem superior"
       inkscape:locked="true"
       inkscape:color="rgb(0,0,255)" />
    <sodipodi:guide
       position="26.458331,238.12498"
       orientation="-1,0"
       id="guide826"
       inkscape:label="Margem esquerda"
       inkscape:locked="true"
       inkscape:color="rgb(0,0,255)" />
    <sodipodi:guide
       position="238.12498,238.12498"
       orientation="-1,0"
       id="guide828"
       inkscape:label="Margem Direita"
       inkscape:locked="true"
       inkscape:color="rgb(0,0,255)" />
    <sodipodi:guide
       position="26.458331,26.458331"
       orientation="0,1"
       id="guide830"
       inkscape:label="Margem inferior"
       inkscape:locked="true"
       inkscape:color="rgb(0,0,255)" />
  </sodipodi:namedview>
  <defs
     id="defs2" />
  <g
     inkscape:label="Camada 1"
     inkscape:groupmode="layer"
     id="layer1">
    <text
       xml:space="preserve"
       style="font-size:10.5833px;line-height:1.25;font-family:Webdings;-inkscape-font-specification:Webdings;stroke-width:0.264583"
       x="64.141411"
       y="86.056389"
       id="text6094"><tspan
         sodipodi:role="line"
         id="tspan6092"
         style="stroke-width:0.264583"></tspan></text>
    <g
       aria-label="R-Type"
       id="text14318"
       style="font-size:99.2025px;line-height:1.25;font-family:'Marquee Moon';-inkscape-font-specification:'Marquee Moon, Normal';stroke-width:0.688906">
      <path
         d="m 68.3557,170.98064 q -0.892822,-2.57927 -1.488037,-4.46412 -0.496013,-1.98405 -0.79362,-3.67049 -0.198405,-1.78564 -0.297608,-3.57129 -0.0992,-1.78564 -0.0992,-4.1665 v -14.78118 q 0,-3.17448 -0.79362,-5.85294 -0.297608,-0.89283 -0.992025,-1.58724 -0.694418,-0.79362 -1.488038,-1.48804 -0.694417,-0.69442 -1.289632,-1.19043 -0.496013,-0.59522 -0.496013,-0.99203 0,-0.39681 0.694418,-0.99202 2.281657,-1.98405 3.273682,-4.46411 1.091228,-2.57927 1.091228,-6.24976 v -8.43221 q 0,-7.53939 -3.670493,-10.713873 -3.57129,-3.273683 -11.705895,-3.273683 H 39.090963 q -1.98405,0 -1.98405,1.884848 V 171.87346 H 34.230041 V 96.975572 q 0,-4.76172 4.860922,-4.76172 h 11.209882 q 9.622643,0 13.88835,3.9681 4.265708,3.868898 4.265708,12.896328 v 8.43221 q 0,7.34098 -4.067303,11.60669 2.281658,1.78565 3.17448,4.66252 0.892823,2.77767 0.892823,6.54736 v 14.78118 q 0,2.18245 0,3.86889 0.0992,1.58724 0.297607,3.17448 0.198405,1.58724 0.694418,3.47209 0.595215,1.78565 1.686442,4.36491 z m -6.249757,2.28165 q -0.992025,-2.67846 -1.58724,-4.86092 -0.595215,-2.28166 -0.992025,-4.36491 -0.297608,-2.08325 -0.39681,-4.1665 -0.0992,-2.18246 -0.0992,-4.76172 v -14.78118 q 0,-1.78564 -0.892822,-2.67846 -0.79362,-0.99203 -1.98405,-1.58724 -1.19043,-0.59522 -2.678468,-0.89283 -1.488037,-0.39681 -2.678467,-0.89282 -1.19043,-0.49601 -2.083253,-1.28963 -0.793619,-0.89282 -0.793619,-2.48006 0,-2.87688 3.769694,-4.56332 4.067303,-1.58724 5.654543,-3.37288 1.686442,-1.88485 1.686442,-5.05933 v -8.33301 q 0,-4.16651 -2.083252,-5.75375 -1.98405,-1.68644 -6.646568,-1.68644 h -6.547364 v 70.13617 h -2.876873 v -71.525 q 0,-1.388838 1.488038,-1.388838 h 7.936199 q 6.051353,0 8.829023,2.281658 2.77767,2.28166 2.77767,7.9362 v 8.33301 q 0,4.46411 -2.083253,6.84497 -2.083252,2.38086 -7.14258,4.26571 -1.388835,0.79362 -1.388835,1.88485 0,0.69441 0.496013,1.28963 0.496012,0.59521 1.488037,0.59521 4.76172,0.49602 6.646568,2.18246 1.98405,1.58724 1.98405,5.75374 v 14.78118 q 0,2.48006 0.0992,4.46411 0.0992,1.98405 0.39681,3.9681 0.39681,1.88485 0.892823,3.9681 0.595215,2.08325 1.488037,4.76172 z"
         id="path43703" />
      <path
         d="m 90.775346,129.51399 h -19.44369 v -2.87687 h 19.44369 z m 0,6.74577 h -19.44369 v -2.87687 h 19.44369 z"
         id="path43705" />
      <path
         d="M 121.13125,95.090724 H 85.517549 v -2.876872 h 35.613701 z m 0,6.646566 h -13.19394 v 70.13617 h -2.97607 v -71.525 q 0,-1.388838 1.48804,-1.388838 h 14.68197 z m -19.93971,70.13617 H 98.314671 V 101.73729 H 85.517549 v -2.777668 h 14.285159 q 1.388832,0 1.388832,1.388838 z"
         id="path43707" />
      <path
         d="m 123.3137,171.87346 z m 32.04241,-78.469178 -11.60669,48.708428 v 29.76075 h -2.87688 V 141.7159 l 11.7059,-49.006036 z m -18.45167,78.469178 h -2.67846 v -29.76075 l -10.91228,-48.807631 2.67847,-0.595215 10.91227,49.006036 z m 11.9043,-79.858013 -8.33301,35.316093 q -0.49601,1.38883 -1.38883,1.38883 -1.09123,0 -1.38884,-1.38883 l -7.9362,-35.316093 2.67847,-0.694418 6.64657,29.463141 7.04338,-29.463141 z"
         id="path43709" />
      <path
         d="m 160.21707,171.87346 z m 27.6775,-45.23634 q 0,5.55534 -2.77767,7.9362 -2.77767,2.38086 -8.82902,2.38086 h -7.9362 q -1.48804,0 -1.48804,-1.38884 v -35.21688 q 0,-1.388838 1.48804,-1.388838 h 7.9362 q 5.95215,0 8.72982,2.281658 2.87687,2.18245 2.87687,7.73779 z m 6.54736,0 q 0,9.32503 -4.46411,13.19393 -4.36491,3.8689 -13.68994,3.8689 h -6.54737 v 28.17351 h -2.87687 v -29.76075 q 0,-1.38884 1.48804,-1.38884 h 7.9362 q 8.33301,0 11.80509,-3.37288 3.57129,-3.37289 3.57129,-10.71387 v -17.65805 q 0,-7.53939 -3.67049,-10.713866 -3.57129,-3.17448 -11.70589,-3.17448 h -11.20989 q -1.98405,0 -1.98405,1.884848 v 74.897888 h -2.87687 V 96.975572 q 0,-4.76172 4.86092,-4.76172 h 11.20989 q 9.52344,0 13.78914,3.9681 4.36491,3.868898 4.36491,12.797118 z m -9.42423,-17.65805 q 0,-4.1665 -2.08326,-5.65454 -1.98405,-1.58724 -6.64656,-1.58724 h -6.54737 v 32.34002 h 6.54737 q 4.66251,0 6.64656,-1.78565 2.08326,-1.78564 2.08326,-5.65454 z"
         id="path43711" />
      <path
         d="m 200.09651,171.87346 z m 30.25676,-70.13617 h -20.73332 v 18.74927 h 20.33651 v 2.77767 h -21.72534 q -1.48804,0 -1.48804,-1.48803 v -21.42774 q 0,-1.388838 1.48804,-1.388838 h 22.12215 z m 0,70.13617 h -25.39584 q -4.86092,0 -4.86092,-4.76172 V 96.975572 q 0,-4.76172 4.86092,-4.76172 h 25.39584 v 2.876872 h -25.39584 q -1.98405,0 -1.98405,1.884848 v 70.136168 q 0,1.98405 1.98405,1.98405 h 25.39584 z m 0,-6.64657 h -22.12215 q -1.48804,0 -1.48804,-1.48804 v -35.21688 q 0,-1.48804 1.48804,-1.48804 h 21.72534 v 2.77767 h -20.33651 v 32.53842 h 20.73332 z"
         id="path43713" />
    </g>
  </g>
</svg>
