<?xml version="1.0" encoding="utf-8"?>
<!-- Generator: Adobe Illustrator 26.5.0, SVG Export Plug-In . SVG Version: 6.00 Build 0)  -->
<svg version="1.1" id="Layer_1" xmlns="http://www.w3.org/2000/svg" xmlns:xlink="http://www.w3.org/1999/xlink" x="0px" y="0px"
	 viewBox="0 0 5000 5000" style="enable-background:new 0 0 5000 5000;" xml:space="preserve">
<style type="text/css">
	.st0{fill:#FFFFFF;}
	.st1{fill-rule:evenodd;clip-rule:evenodd;fill:#E30613;}
</style>
<rect class="st0" width="5000" height="5000"/>
<path d="M2698.82,1535.72l0.15-0.14l0.02-0.02C2698.93,1535.61,2698.88,1535.66,2698.82,1535.72z"/>
<path d="M1634.42,3301.61l-0.08,0.08c0.02-0.02,0.05-0.04,0.07-0.06C1634.41,3301.62,1634.41,3301.61,1634.42,3301.61z"/>
<path d="M3004.01,3042.73l-0.05,0.07c-0.01,0.03-0.03,0.05-0.05,0.07C3003.94,3042.82,3003.97,3042.78,3004.01,3042.73z"/>
<path d="M3003.65,3043.2c0.08-0.11,0.17-0.23,0.25-0.33c-0.05,0.06-0.09,0.12-0.14,0.19L3003.65,3043.2z"/>
<path class="st1" d="M3147.03,3179.11c35.06-46.59,198.37-247.66,198.96-285.39c1.2-46.01-89.67-188.11-170.43-281.88
	c-99.78-115.57-218.57-139.75-277.34-206.39c8.9-28.89,27.31-52.48,42.15-81.96c17.82-34.79,17.22-57.2,30.89-93.75
	c11.28-31.26,27.31-58.39,39.19-85.52c13.67-30.66,18.41-59.56,27.31-90.81c54.06-4.71,105.13,4.13,137.2-4.71
	c57.61-17.1,79.58-125.6,7.71-146.25c3.58-27.72,14.87-44.81-13.65-30.07c-55.24,27.13-51.08,76.06-112.25,92.58
	c49.9-180.43,51.67-130.9,5.94-300.73c-14.84-54.85,11.28-3.55-22.57-94.94c20.2-14.75,32.66-18.88,42.76-46.59
	c83.14,10.03,74.24,31.84,107.49-47.76c7.73-25.36,9.49-41.86,19-46.59c7.71-4.71,17.22,0.6,29.1-4.71
	c7.13-21.23-7.13-54.84-13.07-80.79c-7.13-26.54,8.32-21.82,8.32-48.94c0-35.38-20.2-80.79-16.05-107.33
	c2.99-21.22-59.69-55.8-79.31-67l-100.06-2.78c-4.14,4.72-70.06,31.45-75.4,36.76c-31.47,31.24-36.81,19.46-59.98,77.84
	c-17.82,45.4-5.94,156.26,1.2,175.72c13.05,37.15,14.84,3.53,22.57,40.1c-84.35,56.02-103.33,71.94-179.36,141.53
	c-33.85,30.66-160.94,68.99-219.15,99.65c-180.53,94.94-101.55,99.66-23.15,278.33c51.07,116.16-3.57,70.76,72.45,79.6
	c17.22,37.15,43.35,49.54,62.35,76.07c-4.15,37.15-33.85,112.63-52.26,137.99l-61.17,76.66c-14.85,29.48-1.79,14.15-2.39,25.93
	c-0.58,25.36-37.41,33.03-57.6,123.25c-47.5,209.92-15.44,123.83-118.77,256.51c-84.33,109.09-63.54,164.51-151.45,222.89
	c-38.6,25.36-94.43,34.79-133.03,58.39c-111.65,67.81-237.55,378.56-363.45,369.13c-59.4-4.72-117-3.53-127.08,53.66
	c-5.94,35.38,0,129.73,10.09,208.75c4.75,40.69,11.28,77.84,17.22,99.66c0,0,26.4,97.28,73.65,75.05
	c47.25-22.24,35.62-136.96,55.81-181.19l4.75-10.02c26.13-54.26,25.54,21.22,46.33-43.04c17.82-54.84-14.85-89.64,86.71-176.9
	c45.13-38.92,309.41-238.82,359.88-267.72c41.57-24.17,66.51-27.71,108.09-48.36c49.88-24.76,30.88-44.23,109.27-126.77
	c14.25-15.33,24.94-25.37,39.79-38.93c78.99-69.59,128.88-151.55,149.06-165.7c23.76-16.51,74.24-40.11,101.56-55.44
	c62.96-34.19,65.31-11.78,103.93,19.46c62.96,51.31,288.03,121.48,288.63,170.41c0.6,23-79.57,77.85-120.56,148.01
	c-32.67,56.02-40.38,129.73-69.48,195.19c-93.83,215.23-118.18,171.59-170.45,222.3c-21.97,21.24-42.75,51.31-32.66,96.71
	c0,0.6,50.48,37.74,115.81,79.62c69.48,43.63,155,92.56,215.58,107.31h38c37.99-83.15-7.73-41.29-56.41-98.48l-10.7-14.15
	c-15.46-20.65-30.29-42.46-40.38-67.22c-27.33-67.82,16.63-38.33-28.51-83.14c1.77-74.31,41.56-130.32,75.43-174.54
	C3078.75,3271.09,3110.81,3226.28,3147.03,3179.11z M2701.41,2027.35c-26.72-35.97-68.89-149.19-81.95-198.72l98.57-30.08
	C2716.27,1875.81,2726.96,1958.95,2701.41,2027.35z"/>
</svg>
