<?xml version="1.0" encoding="utf-8"?>
<!-- Generator: Adobe Illustrator 26.5.0, SVG Export Plug-In . SVG Version: 6.00 Build 0)  -->
<svg version="1.1" xmlns="http://www.w3.org/2000/svg" xmlns:xlink="http://www.w3.org/1999/xlink" x="0px" y="0px"
	 viewBox="0 0 3000 2000" style="enable-background:new 0 0 3000 2000;" xml:space="preserve">
<style type="text/css">
	.st0{fill:#FFFFFF;}
	.st1{fill:#F69320;}
	.st2{fill:#EB2227;}
</style>
<g id="Layer_2">
	<rect class="st0" width="3000" height="2000"/>
</g>
<g id="Layer_1">
	<g id="_x36_">
		<path class="st1" d="M2479.99,1351.98c-6.5,23.67-20.45,36.24-35.51,46.61c13.4,16.55,44.12,34.55,69.68,37.66
			c78,9.47,113.33-35.98,138.33-74.33c-67,34.44-89.13,46-133.67,30.14C2504.57,1386.99,2483.93,1363.28,2479.99,1351.98z"/>
		<path class="st2" d="M2495.17,1300.49c-21.81,2-41.74-20.91-44.52-51.17c-2.78-30.26,12.65-56.41,34.46-58.42
			c21.81-2,41.74,20.91,44.52,51.17C2532.41,1272.33,2516.98,1298.48,2495.17,1300.49z"/>
		<path class="st2" d="M2251.07,1430.33c12.32-17.79,37.03-29.92,56.75-43.18c3.75-2.74,7.74-5.67,11.8-8.73
			c14.92-11.25,58.31-42.37,51.11-69.99c-2.91-9.93-9.28-19.32-19.48-25.57c-17.74-10.86-45.39-11.96-69.05-8.56
			c-79.1,11.36-93.37,83.75-93.37,83.75c-16.08-50.67,25.6-118.75,120.9-127.03c30.62-2.66,97.54,3.93,140.26,58.11
			c10.47,13.28,23.84,39.59,15.36,62.23c-13.28,35.46-75.68,67.51-97.35,77.63c41.37,7.41,91.79,23.38,123.43,63.39
			c45.59,57.65,50.43,124.05,29.8,209.52c0,0,0.52-6.21-12.99-54.52c-11.49-41.06-25.85-90.63-68.58-119.73
			c-40.86-27.83-71.12-37.95-151.14-47.26C2223.35,1472.82,2248.88,1433.48,2251.07,1430.33z"/>
		<path class="st1" d="M2182.8,1575.31c39.32-17.52,51.27-46.99,62.35-85.89c0.16-0.65,0.79-4.33,0.95-5.02
			c1.68,0.86,15.93,8.73,48.28,12.7c17.78,2.18,34.03,5.71,34.03,5.71c-13.67,38.43-49.71,86.34-93.56,105.25
			c-111.05,47.91-200.25-5.36-258.02-50.05C1978.34,1558.71,2097.17,1613.48,2182.8,1575.31z"/>
	</g>
	<g id="_x35_">
		<path class="st1" d="M1473.09,1440.05c-7.4,12.44-29.35,57.05-60.5,87.14c-29.09,28.1-77.58,56.05-173,80.88
			c126.88,7.12,168.6-14.85,217.23-40.29c49.81-26.06,83.1-90.66,83.1-90.66C1494.36,1468.62,1477.4,1457.64,1473.09,1440.05z"/>
		<path class="st2" d="M1654.16,1244.92c-21.9-0.31-39.3-25.2-38.87-55.58c0.43-30.38,18.54-54.76,40.44-54.45
			c21.9,0.31,39.3,25.2,38.87,55.58C1694.16,1220.85,1676.06,1245.23,1654.16,1244.92z"/>
		<path class="st2" d="M1696.77,1468.31c-28.07-57.62-114.3-76.22-114.3-76.22s24.6-29.71,38.78-47.13
			c21.77-26.74,28.54-55.68,15.02-78.41c-12.86-21.64-35.52-46.1-84.92-55.85c-46.6-9.2-77.7-0.34-112.08,22.28
			c-37.33,24.57-69.14,83.38-82.01,116.16c78.8-68.78,107.76-96.46,143.7-92.49c36.67,4.04,59.64,26.21,12.64,114.57
			c-15.55,29.24-39.01,49.74-21.24,71.81c0,0,2.08,2.31,6.54,5.26c28.29,15.13,74.06,19.12,103.19,26.47
			c17.48,4.41,40.54,21.53,50.75,38.06c26.64,43.14,34.38,100.83,55.49,189.09C1719.59,1624.94,1726.25,1528.82,1696.77,1468.31z"/>
		<path class="st1" d="M1659.58,1292.45c3.03,34.49,7.37,54.33,28.75,65.32c24.32,12.49,83.77,9.36,106.08,8.68
			c-34,23.94-131.51,50.08-176.33,3.75c0,0,5.67-6.56,16-20.25C1645.58,1334.7,1653.94,1321.7,1659.58,1292.45z"/>
	</g>
	<g id="_x34_">
		<path class="st1" d="M764.77,1339.16c11.83,25.14,24.05,41.32,40.33,42.64c29.99,2.42,50-35.17,80.08-108.28
			c0.01,81.39-28.98,161.53-87.07,160.78c-6.03-0.08-29.67,0.33-51.55-30.79C759.46,1382.97,764.94,1369.94,764.77,1339.16z"/>
		<path class="st1" d="M582.6,1475.55c1.75,31.25,28.83,43.08,58.5,48.25c-47.27,24.2-116.83,67.52-190.51,28.22
			c-46.47-24.78-77.99-65.22-104.57-132.31c42.72,54.65,99.78,87.74,156.96,86.47C548.74,1505.17,582.54,1474.45,582.6,1475.55z"/>
		<path class="st2" d="M756.84,1286.21c-21.9,0.55-40.26-23.64-41.02-54.02c-0.76-30.38,16.38-55.45,38.27-56
			c21.9-0.55,40.26,23.64,41.02,54.02C795.87,1260.59,778.73,1285.66,756.84,1286.21z"/>
		<path class="st2" d="M827.24,1499.05c-44.6-38.91-83.46-54.56-121.54-56.66c21.95-30.71,40.06-56.09,44.06-83.42
			c4.13-28.25-0.42-49.42-30.93-79.02c-33.03-29.55-74.19-56.13-107.11-53.93c-85.98,5.75-58.66,152.4-34.94,197.93
			c1.7-37.96-4.49-93.75,21.74-126.23c10.76-13.32,22.42-15.5,33.88-11.49c53.69,27.75,48.69,92.14,24.03,115.47
			c-24.94,23.59-50.68,34.33-59.39,62.21c-5.95,19.07,14.2,42.97,45.78,46.03c14.03,1.36,27.33,1.16,43.05,1.64
			c40.55,2.4,91.73,17,124.53,41.99c73.23,55.78,116.39,148.36,116.39,148.36S913.27,1574.11,827.24,1499.05z"/>
	</g>
	<g id="_x33_">
		<path class="st2" d="M2435.43,672.02c-27.81-29.59-36.75-35.31-56.48-67c-8.2-13.17-4.94-26.49,3.05-40.44
			c11.14-19.45,16.34-23.16,31.34-46.66c7.7-12.07,29.75-51-19.25-90c-36.55-29.09-104.79-31.59-141.43-13.64
			c-34.48,16.9-62.29,53.96-58.9,88.54c1.35,13.76,2.67,43.03,41.34,99.03c-2.92-37.03-10.75-83.24,2.73-114.65
			c4.95-11.53,25.6-37.02,58.1-34.52c21.44,1.65,24.27,23.56,23.55,31.92c-2.03,23.68-15.54,53.29-17.12,57.41
			c-11.85,30.96-35.55,61.11-21.99,85.59c14.82,26.76,28.17,23.35,106.99,80.66c69.47,50.51,118.84,124.93,143.17,187.51
			C2526.56,838.31,2508.59,749.84,2435.43,672.02z"/>
		<path class="st2" d="M2417.97,420.53c-21.9-0.31-39.3-25.2-38.87-55.58c0.43-30.38,18.54-54.76,40.44-54.45
			c21.9,0.31,39.3,25.2,38.87,55.58C2457.97,396.46,2439.87,420.84,2417.97,420.53z"/>
		<path class="st1" d="M2440.6,482.46c4.5,31.71,4.75,48.6,23.27,60.43c30.68,19.6,111.3-39.64,111.3-39.64
			c-29.8,56.23-77.56,82.78-112.58,85.39c-19.98,1.49-45.6-13.01-52.18-39.97c0,0,9.36-13.02,15.58-23.17
			C2433.34,513.53,2437.9,504.22,2440.6,482.46z"/>
		<path class="st1" d="M2274.39,648.01c6.14,35.37,30.36,74.07,11.37,108.33c-22.2,40.05-91.78,62.53-133.13,81.53
			c121.86-9.33,158.05-36.86,181.81-58.79c29.06-26.83,21.87-49.31,17.24-74.5C2340.94,696.97,2283.9,658.42,2274.39,648.01z"/>
	</g>
	<g id="_x32_">
		<path class="st2" d="M1637.18,414.5c21.81,2,41.74-20.91,44.52-51.17c2.78-30.26-12.65-56.42-34.46-58.42
			c-21.81-2-41.74,20.91-44.52,51.17C1599.94,386.34,1615.37,412.49,1637.18,414.5z"/>
		<path class="st1" d="M1386.57,730.62c-49.77-7.17-89.1-67.84-95.27-156.61c34.83,57.11,56.38,91.51,86.71,99.01
			c36.67,9.07,62.21-27.44,83.62-63.05c7.71,15.32,30.77,25.43,47.53,40.48C1480.52,694.51,1436.74,737.85,1386.57,730.62z"/>
		<path class="st1" d="M1639.49,471.62c-4.63,18.63-7.69,34.83-34.13,61.42c3.33,27.45,12.72,50.94,42.64,67.39
			c30.83,16.95,89.96,18.43,146.41-36.06c-56.73,17.69-96.83,16.58-120.69-0.87C1642.46,540.64,1640.02,487.25,1639.49,471.62z"/>
		<path class="st2" d="M1637.57,714.96c-11.88-53.25-41.61-116.77-80.06-155.75c30.44-27.66,62.63-50.88,66.98-87.61
			c1.07-9.03,1.14-30.72-19.11-55.22c-33.43-40.45-72.03-45.7-100.1-42.38c-22.15,2.63-73.81,7.32-105.05,75.67
			c-28.95,63.33,7.15,105.68,10.7,107.42c-6.99-17.48-8.99-73.75,44.01-117.75c11.98-9.95,32.91-18.36,50.43-17.28
			c25.26,1.57,29.21,19.9,30.11,22.95c11.44,38.72-17.07,60.69-47.49,90.05c-12.92,12.47-23.5,25.77-23.16,44.16
			c0.51,28.08,32.26,42.84,51.87,58.25c83.4,65.55,98.53,157.42,97.88,258.31C1637.34,838.01,1651.77,778.61,1637.57,714.96z"/>
	</g>
	<g id="_x31_">
		<path class="st2" d="M812.27,589.42c-39.57-20.97-84.59-31.28-127.82-34.64c30.23-18.55,49.33-28.67,79.55-47.24
			c22.26-13.68,53.31-42.42,33.36-70.25c-30.82-43-78.16-59.03-130.16-59.03c-133.11,0-244.74,91.82-244.74,91.82
			c137.99-45.51,238.39-50.04,256.65-32.96c10.33,9.67-3.05,25.71-3.88,27.37c-10.11,20.25-99.12,87.3-99.79,130.3
			c-0.2,12.94,6.5,20.05,20.08,25.2c11.37,4.31,175.9,9.1,175.9,9.1s-8.07,7.91-12.72,12.47L624.76,776.99
			c0,0,66.57-30.36,130.29-68.18c83.4-49.5,87.52-77.49,85.41-88.37C837.45,604.98,823.36,595.29,812.27,589.42z"/>
		<path class="st1" d="M571.46,624.77c16.33,13.67,49.58,12.14,89.52,13.81c0,0-285.41,230.96-307.84,240.19
			C456.72,750.74,571.46,624.77,571.46,624.77z"/>
		<path class="st1" d="M818.52,463.46c-1.87,18.72-20.32,38.15-41.23,51.04c14.06,21.25,44.07,38.82,64,40.5
			c41.5,3.5,76.29-24.49,111.19-63.19c28.52-31.63,49.4-55.24,49.4-55.24c-42.33,23.53-117,76.53-151.09,67.36
			C829.29,498.16,820.54,468.9,818.52,463.46z"/>
		<path class="st2" d="M816.75,434.61c-19.69-9.59-24.88-39.51-11.57-66.83c13.3-27.32,40.05-41.7,59.74-32.11
			c19.69,9.59,24.88,39.51,11.57,66.83C863.19,429.82,836.44,444.2,816.75,434.61z"/>
	</g>
</g>
</svg>
